<mxfile host="app.diagrams.net" modified="2023-09-21T09:45:43.742Z" agent="Mozilla/5.0 (Windows NT 10.0; Win64; x64) AppleWebKit/537.36 (KHTML, like Gecko) Chrome/116.0.0.0 Safari/537.36" version="21.8.0" etag="iGTvkXH1MJfrdplfLbbL" type="github">
  <diagram name="Page-1" id="uGp4ZuTMSulvlUHc_5lO">
    <mxGraphModel>
      <root>
        <mxCell id="0" />
        <mxCell id="1" parent="0" />
      </root>
    </mxGraphModel>
  </diagram>
</mxfile>
